<svg fill="none" height="498" viewBox="0 0 792 498" width="792" xmlns="http://www.w3.org/2000/svg" xmlns:xlink="http://www.w3.org/1999/xlink"><linearGradient id="a"><stop offset="0" stop-color="#0288f7"/><stop offset="1" stop-color="#00c7d3"/></linearGradient><linearGradient id="b" gradientUnits="userSpaceOnUse" x1="590.534" x2="81.3356" xlink:href="#a" y1="219.755" y2="219.755"/><linearGradient id="c" gradientUnits="userSpaceOnUse" x1="165.422" x2="122.695" xlink:href="#a" y1="259.095" y2="259.095"/><linearGradient id="d" gradientUnits="userSpaceOnUse" x1="214.659" x2="171.941" xlink:href="#a" y1="266.692" y2="266.692"/><linearGradient id="e" gradientUnits="userSpaceOnUse" x1="718.994" x2="622.159" y1="208.243" y2="208.243"><stop offset="0" stop-color="#0288f7"/><stop offset="1" stop-color="#00d8d3"/></linearGradient><path d="m191.922 474.639-23.967-8.746 16.105-53.868-54.076-6.345 1.403-24.598 54.587-1.692-9.882-54.168 24.621-6.699 18.793 51.217 48.555-25.846 13.672 20.496-43.406 32.869 40.676 38.419-15.729 19.547-47.146-32.447z" fill="#dfeafb"/><path d="m345.784 437.239-20.198-30.599 64.672-48.438-57.024-53.578 22.658-27.209 64.488 44.735 34.918-71.011 34.164 13.322-22.101 75.224 78.18 11.678-1.74 35.365-78.241.835 14.116 79.16-34.883 9.121-26.697-77.796z" fill="#dfeafb"/><path d="m627.393 475.371-14.08-3.927 6.797-31.488-31.171-1.213-.296-14.113 31.105-3.4-8.06-30.501 13.765-4.925 13.019 28.418 26.582-16.929 8.723 11.098-23.327 20.711 24.947 20.131-8.113 11.867-28.377-16.432z" fill="#dfeafb"/><path d="m497.341 133.211c.375 4.682-7.259 7.541-10.588 9.102-2.153 1.011-6.545 3.391-8.924 2.301-2.858-1.325-2.039-3.845-2.667-6.408-.435-1.778-1.228-3.879-2.204-5.989-1.177-2.589-2.658-5.17-4.079-7.149-.174-.261-.366-.514-.549-.749 6.196-8.605 6.283-12.127 10.379-13.025 4.366-.95 5.987 1.526 7.721 4.9 1.586 3.103 2.92 6.512 4.968 9.328 1.446 2.005 5.716 5.039 5.943 7.689z" fill="#ffadae"/><path d="m361.638 443.91 13.168 9.311c1.377.976 1.629 2.92.531 4.21l-1.847 2.171c-.427.506-1.028.82-1.682.881-2.876.27-11.189 1.952-12.775 12.423h-21.726s2.388-9.128 13.464-14.376c1.978-.942 2.867-3.269 1.978-5.274z" fill="#310c47"/><path d="m229.692 459.855-2.135 13.06h-40.549s8.505-8.614 18.1-10.235c9.595-1.63 12.488-5.615 12.488-5.615z" fill="#310c47"/><path d="m249.038 219.231c-3.59-3.461-14.405 13.094-15.285 15.692-3.774 11.151-4.767 24.027-6.318 35.674-4.854 36.502-3.129 73.057-6.048 109.646-1.142 14.271-2.78 28.499-4.305 42.735-.758 7.114-1.499 14.237-2.127 21.368-.374 4.219-3.782 15.126 2.536 15.396 3.373.139 10.658 1.839 13.508-.663 4.209-4.141 5.882-21.463 6.945-27.121 2.728-14.551 6.223-26.25 10.205-40.417 9.534-33.939 20.566-69.639 21.455-105.304.227-8.953 1.203-18.002 1.037-26.851-.226-12.118.113-19.188-21.603-40.155z" fill="#400f58"/><path d="m258.981 344.421c1.264 2.545 2.632 5.03 4.088 7.462 7.25 12.179 16.583 23.077 26.004 33.591 12.148 13.565 23.869 27.418 35.555 41.41 7.669 9.171 14.893 19.275 24.026 27.095 1.934 1.648 4.871 1.317 6.37-.741.349-.471.715-.941 1.072-1.421.427-.54.871-1.072 1.325-1.595.723-.828 1.464-1.639 2.213-2.363 2.187-2.109 2.71-5.405 1.177-8.02-3.085-5.222-6.353-10.279-9.168-15.736-5.804-11.281-11.895-22.405-17.656-33.739-1.865-3.661-4.174-7.157-6.64-10.557s-5.089-6.704-7.582-9.973c-23.416-30.443-17.621-72.909-21.132-109.332-.497-3.426-.288-14.393-1.255-17.523-1.926-6.26-5.848-4.194-10.676-8.779-.871-1.011-2.065-1.901-3.503-2.633s-3.12-1.316-4.967-1.726c-8.445 1.691-9.455-11.429-13.49-11.429-5.36 0-8.331 4.524-9.665 9.119-2.919 10.06-4.313 21.341-5.873 31.707-2.057 13.739-3.198 27.976-1.717 41.828 1.002 9.303 2.632 18.43 5.159 27.017.845 2.86 1.786 5.658 2.832 8.387 1.063 2.738 2.222 5.388 3.503 7.951z" fill="#4d1d68"/><path d="m284.114 321.283c1.813 8.439 3.503 16.852 5.159 25.309.828 4.254 2.109 8.596 5.778 10.784-2.074 1.168-4.035 2.066-5.351 4.35-.296.523-.044 1.351.601 1.473 7.991 1.552 9.778 13.007 12.689 19.258 4.113 8.814 9.978 16.93 15.93 24.576 11.825 15.169 24.139 30.539 37.185 44.793.427-.541.871-1.072 1.324-1.595-6.553-7.35-12.645-15.091-18.919-22.667-8.183-9.86-16.758-19.424-24.096-29.955-5.83-8.36-9.56-16.983-13.699-26.154-1.377-3.069-3.094-6.547-5.926-8.561.079.052-2.736-1.586-2.693-1.377-.122-.541 4.95-2.938 5.604-3.383.723-.479.601-1.56-.244-1.839-6.597-2.197-6.466-12.249-7.451-17.898-1.473-8.448-3.852-16.765-5.508-25.178-3.634-18.473-5.83-37.156-5.01-55.986.819.244 1.812-.567 1.193-1.395-.566-.741-.697-.924-1.368-1.526-.653-.593-1.664-.174-1.716.715-1.273 22.344 1.821 44.444 6.518 66.256z" fill="#400f58"/><path d="m155.209 213.495c.13 2.955 1.464 5.98 3.381 8.465 1.63 2.144 3.791 3.862 6.344 5.109.331.165.671.322 1.011.462 6.074 2.223 12.052 2.118 17.664-1.326 4.157-2.545 7.46-6.25 10.527-10.025 6.702-8.274 13.639-14.925 21.935-21.542 7.712-6.138 14.266-12.955 16.697-22.806-.061.688-.122 1.377-.148 2.057-.166 2.52-.166 5.065-.105 7.62.218 8.334 1.203 16.755.262 24.933-.663 5.806-13.665 60.276-3.974 61.121 4.035-6.983 11.573-12.876 18.501-16.93 1.089-.636 3.808-1.482 4.88-1.351 2.562.305 2.3-.793 3.956 1.107 3.46 4.036 3.242 6.722 8.967 8.84 7.547 2.816 15.146 3.138 22.789 4.629.645.131 8.139 3.566 8.784 3.705 3.042.68 1.9-17.601 4.375-17.287 4.688.575 2.823-5.301 2.457-8.805-1.185-11.604-2.57-24.062-1.943-35.753.462-8.814 2.675-17.348 3.076-26.171.34-7.279.706-14.594 1.83-21.795.131-.88.697-1.543 1.386-1.839.924-.436 2.091-.297 2.867.592 4.959 5.667 9.874 8.422 16.488 14.045 4.183 3.574 4.348 4.856.993 9.529-2.37 3.313-5.298 6.547-7.991 9.598-1.063 1.186-2.301 2.406-3.634 3.67-4.305 4.098-9.377 8.57-10.858 13.766-.898 3.156-.418 7.637 1.795 10.662 2.911 3.984 4.279 1.892 7.721-1.116 2.118-1.857 4.322-3.67 6.562-5.483 11.163-8.98 23.346-17.593 32.165-28.665 7.922-9.938 3.931-14.376-3.233-23.268-5.507-6.844-12.287-12.336-18.126-18.97-6.849-7.794-13.786-15.161-22.91-20.4-8.096-4.647-15.242-3.531-23.634-5.85-23.442-4.019-36.375-2.842-48.444 3.409-5.752 2.964-9.107 9.258-11.939 14.785-3.338 6.53-6.353 13.191-10.405 19.328-3.408 5.161-7.329 9.843-11.242 14.559-.261.322-.531.636-.793.959-1.429 1.726-2.858 3.461-4.253 5.231-5.193 6.608-9.864 13.809-15.886 19.728-3.312 3.252-7.12 6.094-11.355 8.003-4.392 1.979-9.325 2.712-13.142 5.876-2.562 2.11-3.512 4.813-3.398 7.594z" fill="#3a3add"/><path d="m286.815 114.223s-11.59-3.722-30.317-2.223c0 0-10.17 37.339 4.854 50.408.008-.009 15.424-11.43 25.463-48.185z" fill="#fff"/><path d="m258.302 122.819c2.666 2.633 7.093 3.819 10.535 3.357 4.401-.584 9.761-2.328 12.724-5.981 2.727-3.347 1.307-7.741.932-12.039-.488-5.493-.096-10.3135 1.943-15.431l-12.967.4621-4.401.1569c.026 0-1.002 4.6641-1.133 5.0913-.54 1.7177-1.228 3.3827-2.047 4.9777-1.639 3.165-4.157 5.641-5.918 8.709-1.438 2.503-2.614 5.955-1.167 8.701.392.741.906 1.404 1.499 1.996z" fill="#ffadae"/><path d="m259.6 109.708c11.913.976 17.682-6.521 19.782-10.2264-1.098.6274-2.275 1.1074-3.503 1.4034-3.443.828-7.451.82-10.388-1.1158-1.142 3.4178-2.632 5.8938-4.88 8.7088-.34.419-.68.82-1.011 1.23z" fill="#ff9395"/><path d="m300.602 69.5701c3.242 1.0462 5.838 3.8621 6.623 7.1749.784 3.3128-.288 7.0005-2.71 9.3805-1.743 1.7087-4.044 2.72-5.953 4.2282-1.995 1.578-3.546 3.7052-4.435 6.0852-.636 1.6912-.959 3.5482-2.057 4.9871-1.943 2.563-6.257 2.798-8.47.47-1.691-1.778-2.031-4.4197-2.074-6.8782-.105-6.181 1.141-12.3882 3.634-18.0461 1.272-2.9031 2.971-5.7626 5.638-7.4713s6.501-1.918 8.819.2354z" fill="#241f3f"/><path d="m300.985 69.9366c3.59-.1657 7.468-.157 10.231 2.4671.584.558-.209 1.5431-.802.9852-2.518-2.3975-6.03-2.3364-9.289-2.1882-.811.0349-.959-1.2293-.14-1.2641z" fill="#241f3f"/><path d="m300.689 88.9153c-4.183 2.5195-3.19 8.0466-4.453 12.0827-.985 3.156-4 6.696-7.416 7.289-3.355.584-5.482-2.651-6.127-5.528-.836-3.7396.21-7.6017 2.589-10.5571.514-.6364 1.499.1657.984.8021-2.309 2.8769-3.285 6.8261-2.091 10.392.749 2.232 2.597 4.411 5.22 3.409 1.551-.593 2.998-1.884 4.017-3.148 3.695-4.594.915-12.3879 6.536-15.7792.689-.401 1.438.619.741 1.0375z" fill="#241f3f"/><path d="m253.247 72.4471c-.061 1.2641-.07 2.5282-.043 3.7836.13 6.0241 1.533 12.0308 4.217 17.4185.837 1.6738 1.735 3.339 2.963 4.7513 3.059 3.5305 11.076 5.4835 15.617 4.3935 4.069-.985 7.459-3.9489 9.716-7.4797s3.495-7.6108 4.471-11.682c3.372.6538 6.954-2.3452 6.902-5.78-.053-3.4349-2.118-5.7277-7.094-5.0477-.157-.0262-.305-.0523-.462-.0785-9.35-1.6041-16.313-8.2995-24.993-11.499-1.525-.5666-5.934-2.7112-7.294-1.5953-.575.4707-1.011 1.4297-1.368 2.0748-.811 1.4734-1.377 3.0775-1.778 4.7077-.497 1.979-.749 4.0016-.854 6.0328z" fill="#ffadae"/><path d="m290.162 84.103c-1.848 7.6805-5.395 17.183-13.891 19.223-3.599.863-7.007.785-10.318-.933-2.841-1.473-5.987-3.4085-7.704-6.1895-.322-.5144.445-1.081.767-.558 1.586 2.5544 4.497 4.3765 7.094 5.7535 3.363 1.788 6.858 1.857 10.492.872 7.651-2.075 10.945-11.3419 12.619-18.3075.148-.5928 1.089-.4533.941.1395z" fill="#fff"/><path d="m253.247 72.4472c1.787-.68 4.366-1.5692 7.852-2.5543 7.826-2.2231 11.381 7.8723 20.557 6.6343 4.41-.6015 6.693-2.2405 7.878-3.7923-9.35-1.6041-16.313-8.2995-24.993-11.499-1.525-.5666-5.934-2.7113-7.294-1.5954-.575.4708-1.011 1.4298-1.368 2.0749-.811 1.4733-1.377 3.0775-1.778 4.7077-.497 1.9703-.749 3.9928-.854 6.0241z" fill="#ff9395"/><path d="m164.934 227.069c.331.165.662.322 1.011.462 6.074 2.223 12.052 2.109 17.664-1.334 4.157-2.546 7.46-6.251 10.527-10.026 6.702-8.264 13.647-14.925 21.944-21.533 7.712-6.138 14.257-12.955 16.697-22.806-.061.688-.122 1.377-.149 2.057l3.024-19.755s-15.973 13.487-18.675 24.594c-2.693 11.106-17.08 22.213-23.677 23.05s-14.248 1.011-21.368 11.281c-3.713 5.361-5.856 10.348-6.998 14.01z" fill="#2c2cbf"/><path d="m298.946 72.0547c-2.074-2.0574-5.508-1.6825-8.261-.7061-2.754.9764-5.517 2.4236-8.419 2.0574-5.071-.6451-7.982-6.4164-12.819-8.0728-2.954-1.0113-6.178-.34-9.228.3051s-6.31 1.2467-9.22.1308c-2.911-1.1246-5.098-4.6815-3.626-7.4364.881-1.6477 2.859-2.7113 3.138-4.5595.357-2.3103-2.066-3.9405-3.774-5.5359-1.995-1.8744-3.329-4.8733-2.213-7.3754.497-1.0984 1.394-1.9615 2.327-2.7287 4.4-3.5656 10.91-5.3528 15.729-2.3974 3.669 2.2492 6.022 6.9482 10.301 7.4102 2.361.2616 4.619-.9154 6.963-1.3425 3.773-.6888 7.73.6538 10.727 3.0425 2.998 2.38 5.133 5.719 6.667 9.2323.636 1.4559 1.185 3.0687.758 4.6031-.462 1.6564-2.039 3.1036-1.656 4.7862.497 2.1969 3.652 2.3625 5.22 3.9753 1.769 1.8134.514 5.4749-1.995 5.8149-1.473.2005-2.876-.5492-4.305-.9415-1.83-.497-3.817-.4185-5.595.2441z" fill="#241f3f"/><path d="m292.611 70.6687c-2.144-.2441-4.34 2.2667-6.109 3.2344-1.673.9241-3.512 1.5692-5.438 1.5866-3.747.0436-6.231-2.5892-8.671-5.0738-1.412-1.4385-2.911-2.8769-4.854-3.5395-2.379-.8021-4.976-.4272-7.425-.2354-3.416.2703-7.764.4098-9.838-2.8595-.436-.6887.583-1.4384 1.019-.7497 2.562 4.0277 8.889 2.0748 12.802 2.101 3.564.0174 6.196 1.3949 8.679 3.8708 3.051 3.0425 5.9 6.2595 10.684 4.8384 2.04-.6102 3.756-1.8569 5.456-3.0861 1.211-.8805 2.353-1.5257 3.886-1.3513.82.1046.619 1.36-.191 1.2641z" fill="#241f3f"/><path d="m261.674 55.2205c-.802-.122-.61-1.3774.192-1.2554.81.1308.618 1.3862-.192 1.2554z" fill="#241f3f"/><path d="m301.438 70.5292c1.508-.4794 2.475-2.2317 1.456-3.6615-.567-.7933-1.682-1.0636-2.432-1.6564-1.019-.8021-1.481-1.9092-1.507-3.1908-.035-1.6128.706-3.0861.932-4.6554.34-2.3625-.252-4.76-1.499-6.7825-4.026-6.5385-14.021-10.0954-20.862-6.059-.697.4097-1.447-.6103-.75-1.02 7.617-4.4897 18.754-.6626 22.963 6.9046 1.011 1.8221 1.586 3.9144 1.499 6.0067-.052 1.2031-.383 2.2928-.68 3.4523-.575 2.2143-.453 3.6354 1.673 4.9344 2.85 1.7348 3.312 5.7451-.339 6.9133-.759.2354-1.229-.9416-.454-1.1857z" fill="#241f3f"/><path d="m250.851 52.5878c0-5.3267-8.907-5.0303-8.497-10.9498.331-4.6815 5.455-8.1687 9.569-9.3107 4.74-1.3164 9.986-.1744 13.76 3.0077 2.239 1.8918 3.712 4.5071 6.196 6.1287 2.867 1.8743 6.283 2.4933 9.638 1.9615.81-.1308.95 1.1333.148 1.2641-4.566.7236-9.307-.6364-12.636-3.9056-1.778-1.7436-3.111-3.8272-5.194-5.2657-2.475-1.7087-5.525-2.6066-8.531-2.4671-2.597.122-5.142 1.0025-7.286 2.4759-2.283 1.5779-5.315 4.6815-4.191 7.7502 1.507 4.1149 8.279 3.9492 8.287 9.1539-.008.8194-1.263.9764-1.263.1569z" fill="#241f3f"/><path d="m291.155 69.1781c-1.028-2.1533-3.163-3.5482-5.586-3.3826-1.551.1046-2.911.6975-4.479.34-3.556-.8107-4.933-4.5507-8.026-6.0764-1.978-.9764-4.34-1.1769-6.449-.5056-1.542.4969-2.841 1.5082-4.523 1.482-3.346-.0523-6.213-2.9205-8.462-5.0651-.444-.4185.157-1.1595.602-.741 1.655 1.5779 3.364 3.2518 5.481 4.202 1.534.6887 2.902.7672 4.453.1395.915-.3661 1.752-.8456 2.71-1.081 2.833-.7149 6.005-.0523 8.288 1.7784 1.464 1.1682 2.44 2.8247 3.974 3.9144 2.309 1.6303 4.13.7585 6.605.6539 2.754-.1134 5.133 1.5605 6.284 3.984.278.558-.61.9067-.872.3575z" fill="#4d4a68"/><path d="m287.042 60.9919c.192 0 .392 0 .584-.0087.235-.0087.436-.1221.54-.3138.114-.218.105-.5057-.035-.7324-.139-.2179-.34-.3312-.627-.3312-3.8.122-6.623-1.1595-8.593-3.8882-1.193-1.6652-2.553-3.5482-5.176-3.9318-2.1-.3052-3.948.3836-5.743 1.0548-.645.2354-1.307.4882-1.969.6888-3.861 1.1594-6.249-2.3713-8.157-5.2134l-.262-.3836c-.139-.2005-.348-.3138-.575-.2964-.252.0175-.488.1831-.601.4185-.105.2179-.087.4708.052.68l.401.5928c1.473 2.2057 3.146 4.7077 5.891 5.5708 2.013.6364 3.852-.0785 5.63-.7759 1.106-.4359 2.248-.8805 3.425-.9851 3.032-.2877 4.261 1.3076 5.69 3.1471.715.9241 1.455 1.8831 2.484 2.6677 1.751 1.3513 4.122 2.04 7.041 2.04zm.488-.959c.122 0 .192.0698.227.1308.052.0959.069.218.026.2964-.009.0175-.044.0872-.166.0872-3.085.0959-5.56-.5579-7.364-1.9354-.984-.7497-1.708-1.6913-2.405-2.5892-1.438-1.8656-2.806-3.6267-6.074-3.3215-1.237.1133-2.405.5753-3.547 1.02-1.786.6974-3.468 1.3512-5.342.7671-2.596-.8195-4.148-3.1471-5.655-5.4051l-.401-.5928c-.052-.0785-.061-.1656-.026-.2441.043-.0959.148-.1657.244-.1744.069-.0087.139.0262.183.1046l.261.3836c1.987 2.9641 4.462 6.6431 8.645 5.3877.68-.2092 1.351-.4533 1.996-.6974 1.821-.68 3.529-1.3164 5.525-1.0287 2.265.3313 3.451 1.7697 4.88 3.7574 2.056 2.8595 4.984 4.1933 8.958 4.0713.026-.0175.035-.0175.035-.0175z" fill="#4d4a68"/><path d="m287.033 226.999c.384 3.818 1.856 7.541 2.362 11.42.287 2.18 2.205 25.038 2.431 27.2.645.122 1.307.262 1.961.41 3.041.68 6.667 4.612 9.133 4.926 4.688.575.95-25.971.592-29.476-1.194-11.603-2.579-24.07-1.943-35.752.462-8.814 2.675-17.349 3.085-26.171.34-7.28.706-14.585 1.821-21.795.14-.881.697-1.534 1.395-1.84-.462-1.194-1.055-2.275-2.467-2.397-2.222-.183-3.555 4.01-4.191 5.858-1.639 4.76-2.928 9.782-3.983 14.725-1.804 8.387-3.581 16.486-5.089 24.907-.645 3.609-2.309 6.73-3.19 10.244-1.342 5.353-2.483 12.205-1.917 17.741z" fill="#2c2cbf"/><path d="m268.532 89.0374-9.778-1.5518c-.296-.0435-.557.2006-.522.5057.226 1.6826 1.272 6.3554 6.039 6.5559 4.958.2092 4.793-3.9057 4.636-5.1175-.026-.2092-.183-.3574-.375-.3923z" fill="#fff"/><path d="m291.312 216.546c-1.089-1.264-2.213-2.545-3.05-4.001-1.298-2.258-1.795-4.525-4.941-4.63-2.17-.078-4.488.924-6.632 1.23-3.259.462-6.771.209-7.189-3.662-.079-.732 1.063-.723 1.141 0 .558 5.161 9.063 1.613 12.192 1.334 1.508-.131 2.989-.122 4.157.933.627.558.871 1.29 1.237 2.022 1.133 2.25 2.231 4.028 3.878 5.955.497.566-.313 1.377-.793.819z" fill="#fff"/><path d="m430.169 449.568c-1.429 3.261-1.168 3.383-3.913 6.068-3.32 3.251-8.087 7.706-12.575 8.622-6.1 1.246-22.405 4.943-23.302 6.556-2.275 4.088 3.965 5.204 7.477 5.082 9.376-.331 18.753-.741 28.139-.854 11.128-.122 12.035-8.195 10.788-16.547-.793-5.388-2.588-4.594-6.614-8.927z" fill="#1f1440"/><path d="m648.215 423.118c4.566 4.585 6.065 8.221 6.065 14.742.009 5.448-1.011 10.548-.828 15.98 6.989 2.415 11.843-19.555 12.131-25.091.314-5.936-4.331-8.125-9.438-9.938-6.248-2.223-9.002-3.975-7.93 4.307z" fill="#1f1440"/><path d="m652.416 416.928c-1.125 2.171-2.24 4.699-2.963 7.036-10.118-7.829-24.375-11.081-35.904-16.469-1.299-.61-2.588-1.211-3.878-1.83-13.734-6.504-26.823-13.208-39.52-21.804-6.501-4.394-13.307-8.116-20.227-11.926-2.544-1.386-5.83-2.79-8.122-4.56-2.466-1.9-2.841-3.156-4.366-6.076-6.91-13.164-10.405-27.993-14.762-42.291-.715-2.345-1.455-4.673-2.205-7-2.013-6.286-4.052-12.572-5.446-19.014-1.926-8.988 1.664-15.012 19.189-48.123 3.747 3.016 7.677 4.943 10.85 8.787 4.923 5.92 5.246 12.816 6.884 20.06 2.98 13.138 5.856 26.773 8.383 40.216 1.499 8.012 2.092 15.972 2.902 24.053.375 3.749.488 7.515.889 11.272.462 4.412 1.699 4.682 5.508 7.053 13.987 8.692 26.352 19.72 40.008 29.057 14.579 9.974 29.908 19.563 42.78 31.559z" fill="#2e1d66"/><path d="m609.662 405.673c-13.734-6.503-26.823-13.207-39.52-21.803-6.501-4.394-13.307-8.117-20.227-11.926-2.544-1.387-5.83-2.79-8.122-4.56-2.466-1.9-2.84-3.156-4.366-6.076-6.91-13.164-10.405-27.994-14.762-42.291-.715-2.345-2.492-7.977-3.242-10.305 3.268-10.47 9.717-17.967 17.525-29.065 4.723 16.904 6.737 35.891 9.961 53.484 1.725 9.468 4.697 17.384 10.074 25.544 5.987 9.058 17.141 16.207 25.699 23.033 7.695 6.146 15.869 12.013 23.093 18.787 1.56 1.456 2.885 3.243 3.887 5.178z" fill="#211654"/><path d="m532.138 246.649c5.107.828 10.309 2.127 13.865 7.672.749 1.133 1.376 2.354 1.873 3.609.497 1.256.854 2.563 1.072 3.862 0 7.899-1.821 15.457-5.795 22.309-7.495 12.894-19.146 21.307-29.865 31.237-11.529 10.679-22.562 22.762-31.572 35.927-17.299 25.264-26.127 54.905-35.477 83.735-1.656 5.1-5.874 16.146-7.416 19.834-.297.697-1.037 1.081-1.778.933-2.274-.462-7.033-1.474-8.967-2.267-3.869-1.587-1.848-4.115-1.081-7.925 1.081-5.361 2.588-13.783 3.835-19.136 1.342-5.753 2.196-11.621 3.729-17.331 2.493-9.25 5.351-18.403 7.861-27.644 3.512-12.947 5.629-25.91 10.3-38.464 7.207-19.371 16.122-37.731 26.44-55.638 3.103-5.388 6.179-11.272 9.83-16.669.732-1.081 1.482-2.136 2.266-3.173 8.279-13.539 22.579-18.744 37.342-20.784 1.115-.035 2.3-.061 3.538-.087z" fill="#452b99"/><path d="m54.5309 475.378 19.9469-.285 19.9469-.216 39.8913-.428c26.592-.226 53.188-.43 79.781-.563 26.593-.179 53.189-.223 79.782-.334l79.781-.125 79.782.074c26.593.095 53.189.12 79.782.287l39.89.221 39.891.295 39.891.408 19.947.207 19.947.275-19.947.287-19.947.219-39.891.43-39.891.319-39.89.244c-26.593.179-53.189.221-79.782.331l-79.782.121-79.781-.079c-26.593-.093-53.189-.123-79.782-.287-26.593-.118-53.189-.307-79.781-.516l-39.8913-.406-19.9469-.206z" fill="#dfeafb"/><g fill="#2c2cbf"><path d="m282.205 141.38c1.621 3.548 3.233 7.105 4.846 10.662.305.663-.689 1.247-.985.576-1.612-3.557-3.224-7.106-4.845-10.663-.314-.662.679-1.246.984-.575z"/><path d="m287.068 113.587c2.789 6.704 6.205 13.191 8.27 20.174.209.706-.897 1.011-1.107.305-2.065-6.983-5.481-13.47-8.27-20.174-.279-.68.828-.976 1.107-.305z"/><path d="m295.19 134.319c-4.017 3.164-8.532 6.076-13.333 7.898-.689.262-.985-.846-.305-1.107 4.592-1.752 8.976-4.577 12.828-7.611.575-.436 1.394.366.81.82z"/><path d="m287.042 152.617c-3.843 5.833-8.967 10.575-13.612 15.745-5.394 6.015-9.412 13.025-14.004 19.633-.419.601-1.412.026-.985-.575 4.183-6.016 7.86-12.424 12.592-18.038 4.933-5.858 10.78-10.897 15.015-17.331.41-.619 1.403-.053.994.566z"/><path d="m257.456 110.989c-.906.611-1.725 2.72-2.283 3.636-1.429 2.345-2.832 4.707-4.235 7.079-1.891 3.199-3.774 6.399-5.647 9.616-.375.636-1.36.061-.985-.576 2.126-3.653 4.27-7.288 6.423-10.923 1.385-2.337 2.779-4.682 4.209-6.992.514-.828 1.098-2.258 1.952-2.825.601-.418 1.176.576.566.985z"/><path d="m245.282 130.735c1.734 2.52 3.329 5.144 4.95 7.733.392.628-.601 1.203-.985.576-1.621-2.598-3.216-5.214-4.95-7.733-.418-.602.567-1.177.985-.576z"/><path d="m250.232 139.052c-1.743 3.33-3.8 6.521-5.813 9.695-.392.619-1.385.043-.984-.576 2.013-3.173 4.069-6.364 5.812-9.694.34-.654 1.325-.079.985.575z"/><path d="m244.419 148.163c3.233 7.427 6.458 14.864 9.691 22.291.287.672-.697 1.256-.985.576-3.233-7.428-6.457-14.864-9.691-22.292-.296-.663.689-1.247.985-.575z"/><path d="m261.927 162.399c-1.063 8.378-2.092 16.791-2.728 25.212-.532 7.027-.627 14.08-1.368 21.098-.776 7.384-2.301 14.663-3.137 22.039-.079.723-1.229.732-1.142 0 .81-7.149 2.274-14.202 3.068-21.342.801-7.244.897-14.533 1.446-21.795.636-8.43 1.656-16.834 2.728-25.212.087-.715 1.229-.723 1.133 0z"/><path d="m234.798 160.324c.663-.68 1.386-1.308 2.101-1.935.549-.488 1.359.322.81.811-.715.636-1.438 1.255-2.1 1.935-.514.532-1.325-.279-.811-.811z"/><path d="m203.243 167.063c3.538 1.064 6.763 2.703 9.604 5.414.54.514 1.368-.279.836-.785-1.978-1.891-4.131-3.295-6.44-4.35-.549-.253-1.107-.488-1.673-.706-.506-.192-1.011-.366-1.534-.532-.261.323-.531.637-.793.959z"/><path d="m205.77 166.531c2.292-.645 4.645-1.028 6.885-.008.671.305.07 1.281-.593.985-1.926-.872-4.069-.41-6.021.139-.706.192-.985-.915-.271-1.116z"/><path d="m308.593 157.421c-2.85-3.574-5.621-7.192-8-11.098-.383-.627.601-1.203.985-.575 2.335 3.827 5.037 7.367 7.825 10.871.454.567-.348 1.378-.81.802z"/><path d="m327.922 174.613c4.148-1.953 8.183-2.031 12.366-.166.671.297.087 1.29-.576.985-3.782-1.691-7.477-1.595-11.206.166-.663.314-1.247-.671-.584-.985z"/><path d="m330.144 174.072c3.05.75 5.812 1.927 7.608 4.621.409.619-.584 1.186-.985.575-1.621-2.441-4.183-3.426-6.928-4.097-.715-.175-.418-1.273.305-1.099z"/><path d="m236.419 152.975c-.383 3.173-1.228 6.242-1.804 9.38-.636 3.505-.714 7.062-.897 10.61-.366 7.053-1.255 13.67-.096 20.723.122.723-.985 1.028-1.107.305-1.107-6.722-.401-13.007-.017-19.746.183-3.174.191-6.382.575-9.538.488-3.958 1.708-7.776 2.196-11.743.096-.715 1.237-.723 1.15.009z"/></g><path d="m488.661 128.634c-8.009 1.787-13.394 15.335-15.459 22.031-3.791 12.274-10.745 28.089-3.469 40.407 3.495 5.911 8.915 10.549 12.418 16.617 4.758 8.247 7.608 17.505 8.968 26.903 1.298 8.962.034 17.855.941 26.773.645 6.382 8.932.959 11.712-.044 13.211-4.768 26.457-3.618 40.157-2.484 1.246.104 2.518.218 3.634.784 1.106.567 2.021 1.718 1.925 2.956.035-.454 4.663-4.106 5.255-5.309 1.22-2.468 1.456-5.153 1.02-7.838-1.961-12.127-11.224-21.28-18.266-30.731-8.034-10.792-12.531-24.166-15.442-37.234-1.124-5.048-1.865-10.209-2.675-15.37-.27-1.717-.549-3.435-.854-5.143-2.867-13.443-10.379-29.72-25.917-32.797-1.307.026-2.632.192-3.948.479z" fill="#10e6e2"/><path d="m590.534 203.6v43.38h-477.913c-17.2724 0-31.2854-9.345-31.2854-20.879v-1.63c0-11.534 14.013-20.88 31.2854-20.88h477.913z" fill="url(#b)"/><path d="m739.484 234.781c-3.524-1.452-5.205-5.488-3.753-9.013 1.451-3.526 5.485-5.207 9.01-3.755 3.524 1.452 5.204 5.487 3.753 9.013-1.452 3.526-5.485 5.207-9.01 3.755z" fill="#d7d4ff"/><path d="m685.287 336.487c0 7.219-5.874 13.086-13.081 13.086-2.823 0-5.438-.898-7.581-2.432-3.321-2.38-5.499-6.268-5.499-10.662 0-2.45.679-4.734 1.856-6.696 2.283-3.818 6.457-6.381 11.216-6.381 7.224.009 13.089 5.876 13.089 13.085zm-.863 0c0-6.73-5.481-12.213-12.218-12.213-4.871 0-9.089 2.868-11.041 7.009-.758 1.578-1.168 3.348-1.168 5.204 0 3.671 1.63 6.966 4.201 9.215 2.143 1.875 4.949 3.008 8.008 3.008 6.737 0 12.218-5.484 12.218-12.223z" fill="#fff"/><path d="m165.422 245.123v16.931c0 11.368-9.211 20.574-20.566 20.574h-1.603c-11.355 0-20.558-9.206-20.558-20.574v-16.931z" fill="url(#c)"/><path d="m214.659 245.123v37.322c0 11.359-9.202 20.574-20.566 20.574h-1.586c-.296 0-.593-.008-.889-.026-10.954-.462-19.677-9.494-19.677-20.548v-37.322z" fill="url(#d)"/><path d="m477.777 126.054c-1.011 2.092-2.789 4.28-4.82 6.172-1.176-2.589-2.658-5.17-4.078-7.149.174-.148.366-.296.549-.462 2.057-1.665 4.845-6.425 7.512-6.704 4.026-.401 1.621 6.478.837 8.143z" fill="#ff9395"/><path d="m590.534 224.575v22.406h-477.913c-17.2724 0-31.2854-9.346-31.2854-20.88v-1.526z" fill="#0289f6"/><path d="m484.417 115.147c-8.854 13.801-29.019 22.414-37.289 8.187-2.144-3.679-2.728-8.064-2.745-12.328-.009-3.33.279-7.392 1.15-11.2544.837-3.7226 2.24-7.2621 4.471-9.8339.235-.2789.488-.5405.749-.7846 4.61-4.4723 12.915-6.7912 19.189-6.4338 6.911.3749 11.164 2.659 15.181 8.2384 5.577 7.7154 4.105 16.7293-.706 24.2093z" fill="#ffadae"/><path d="m538.107 204.463c-9.263 12.022-22.684 22.144-34.335 31.751-9.786 8.064-20.584 13.687-32.209 18.098-6.1 2.302-8.688.48-14.736-.784-5.429-1.142-9.089-3.435-14.03-6.539 6.021-.723 10.518.297 15.982-.366 2.327-.279 4.566-1.186 6.71-2.519 8-4.961 14.693-15.806 20.383-21.952 8.549-9.233 19.076-19.258 30.135-24.297-6.405-5.37-13.08-11.883-18.666-18.02-6.806-7.489-21.307-19.52-20.784-30.565.435-9.067 6.335-11.743 12.697-10.749 3.564.549 7.276 2.24 10.248 4.62.897.724 1.786 1.465 2.789 2.04 5.472 3.165 15.538 18.142 23.267 27.714 5.517 6.818 18.798 23.452 12.549 31.568z" fill="#ffadae"/><path d="m414.222 252.002c-.907-.122-1.796-.314-2.667-.671-2.292-.942-4.279-2.668-5.412-4.891-.749-1.473-1.141-3.156-.889-4.786.445-2.921 2.85-4.751 5.787-4.49 3.102.279 5.891 1.752 8.627 3.112 3.007 1.491 5.961 3.087 8.941 4.647 1.944 1.02 3.904 2.127 2.85 4.717-.845 2.074-3.329 3.269-5.438 3.443-1.943.157-3.782-.41-5.691-.68-2.021-.279-4.104-.139-6.108-.401z" fill="#ff9395"/><path d="m670.577 304.859c46.448 0 84.243-37.81 84.243-84.276 0-46.467-37.795-84.277-84.243-84.277-46.449 0-84.244 37.81-84.244 84.277 0 46.475 37.795 84.276 84.244 84.276zm0-148.502c35.398 0 64.2 28.813 64.2 64.226 0 35.412-28.802 64.225-64.2 64.225-35.399 0-64.2-28.813-64.2-64.225 0-35.413 28.801-64.226 64.2-64.226z" fill="#0289f6"/><path d="m670.577 269.028c26.701 0 48.417-21.725 48.417-48.437s-21.725-48.437-48.417-48.437c-26.702 0-48.418 21.734-48.418 48.437s21.725 48.437 48.418 48.437zm0-94.267c25.254 0 45.803 20.557 45.803 45.822 0 25.264-20.549 45.821-45.803 45.821-25.255 0-45.804-20.557-45.804-45.821 0-25.265 20.549-45.822 45.804-45.822z" fill="url(#e)"/><path d="m741.879 202.519c.244 0 .488-.035.732-.105 1.386-.401 2.187-1.848 1.786-3.243-5.35-18.491-17.385-34.218-33.89-44.278-1.238-.75-2.841-.358-3.591.871-.749 1.238-.357 2.842.872 3.592 15.381 9.381 26.605 24.036 31.59 41.262.322 1.16 1.368 1.901 2.501 1.901z" fill="#fff"/><path d="m695.657 153.297c1.072 0 2.074-.662 2.457-1.734.488-1.36-.217-2.86-1.577-3.348-8.314-2.982-17.045-4.499-25.96-4.499-1.447 0-2.615 1.169-2.615 2.616s1.168 2.615 2.615 2.615c8.305 0 16.444 1.412 24.191 4.194.296.104.593.156.889.156z" fill="#fff"/><path d="m165.422 245.123v16.931c0 11.368-9.211 20.574-20.566 20.574h-.802v-37.505z" fill="#0289f6"/><path d="m214.659 246.021v36.415c0 11.36-9.202 20.574-20.566 20.574h-1.586c-.296 0-.593-.008-.889-.026v-56.971h23.041z" fill="#0289f6"/><path d="m146.973 197.445h141.751c.958 0 1.743-.785 1.743-1.744s-.785-1.743-1.743-1.743h-141.751c-.958 0-1.743.784-1.743 1.743s.776 1.744 1.743 1.744z" fill="#0289f6"/><path d="m374.763 197.445h78.265c.958 0 1.743-.785 1.743-1.744s-.785-1.743-1.743-1.743h-78.265c-.959 0-1.743.784-1.743 1.743s.784 1.744 1.743 1.744z" fill="#0289f6"/><path d="m484.417 115.148c-5.421 2.667-12.078 1.229-15.033-4.76-2.013-4.098-.767-8.256-6.771-8.779-4.505-.393-9.865 1.464-14.117.165-1.002-.296-2.04-1.055-2.955-2.0136.837-3.7226 2.24-7.2621 4.471-9.8339.235-.2789.488-.5405.749-.7846 4.61-4.4723 12.915-6.7913 19.19-6.4338 6.91.3748 11.163 2.6589 15.18 8.2384 5.569 7.7067 4.096 16.7215-.714 24.2015z" fill="#ff9395"/><path d="m478.334 58.385c-.418-.0872-.845-.1656-1.281-.2354.218-.0435.445-.0871.663-.1394-1.621.3312-4.419-.7672-6.188-.7934-2.239-.0349-4.488.2005-6.675.6975-4.148.9502-8.061 2.8943-11.808 4.8646-.785.4969-1.534 1.0374-2.266 1.6302-2.17 1.7785-4.078 4.0103-5.647 6.7652-.479.8805-.889 1.7871-1.237 2.72-3.173 8.5261 1.734 19.1794 10.152 21.5507.645.1831 1.316.3139 2.004.4098 3.617.2615 8.349-.4882 12.898 1.1595.566.2092 1.133.4446 1.69.7323 4.95 3.4434 2.449 9.7034 5.273 14.7854.157.619.322 1.221.514 1.822 1.917 5.963 6.536 11.037 11.747 15.021 12.479 9.538 26.701 18.979 41.577 24.28 13.333 4.742 25.394 2.249 38.204-2.781 17.386-6.164 34.292-15.274 38.187-34.785 1.264-6.312-1.132-12.1-6.579-15.614-5.717-3.6961-12.819-3.6874-19.25-5.1869-14.083-3.2954-27.774.5492-41.673 2.5892-21.325 3.1207-30.649-11.9523-41.769-27.1477-5.054-6.9482-10.379-10.6882-18.536-12.3446z" fill="#1f1440"/><path d="m456.879 92.4289c-5.751-2.1621-12.122-.3052-14.64-7.4975-1.926-5.5097-1.22-13.1902 1.978-18.1071 7.721-11.8652 26.823-16.259 39.407-11.0544 7.181 2.9641 13.325 8.4041 17.952 14.5677 4.723 6.2682 7.407 14.4282 15.006 17.8979 8.619 3.9318 20.096 2.3016 29.273 1.8657 9.516-.4446 19.285-1.4734 28.757-.0872 8.445 1.2379 18.161 3.7923 24.628 9.7205 2.448 2.2495 4.871 5.5095 4.801 9.0055-.061 3.252-2.736 5.614-4.784 7.811-.575.619-1.499-.313-.924-.924 3.591-3.827 5.883-7.244 2.388-12.248-2.109-3.008-5.272-5.1789-8.523-6.8004-7.154-3.5656-15.581-5.4923-23.538-5.8323-15.494-.6538-31.659 3.1123-47.032.3574-4.549-.8194-8.645-2.8246-11.834-6.2159-4.105-4.3677-6.388-10.1389-10.109-14.8379-4.828-6.0939-11.216-11.342-18.658-13.8354-8.148-2.7287-16.958-1.1246-24.566 2.4846-7.416 3.5134-13.002 8.8662-13.743 17.3575-.34 3.8794-.235 9.1451 2.937 11.9523 3.181 2.8071 7.817 1.761 11.555 3.1646.793.2877.454 1.5518-.331 1.2554z" fill="#1f1440"/><path d="m492.678 118.391c.262.209.523.409.785.619.209.165.252.575.104.793-.993 1.465-2.213 1.874-3.512 2.973-3.364 2.859-.889 5.117 1.203 7.811 3.346 4.289 7.128 8.221 11.285 11.726 8.872 7.488 19.756 13.635 31.268 15.718 25.377 4.603 51.886-8.107 68.871-26.363.575-.619 1.499.305.923.924-17.934 19.276-46.613 32.518-73.21 26.058-11.852-2.877-22.998-9.842-31.834-18.133-4-3.758-9.177-8.596-11.599-13.626-.497-1.038-.889-1.692-.445-2.842.384-.968 5.734-4.342 5.238-4.734-.663-.523.27-1.447.923-.924z" fill="#1f1440"/><path d="m538.107 204.463c-9.263 12.022-22.684 22.144-34.335 31.751-9.786 8.064-20.584 13.687-32.209 18.098-6.1 2.302-8.688.48-14.736-.784-5.429-1.142-9.089-3.435-14.03-6.539 6.021-.723 10.518.297 15.982-.366 2.327-.279 4.566-1.186 6.71-2.519 4.366.087 8.741-.253 13.307-1.7 10.745-3.409 18.065-12.511 26.527-19.485 4.593-3.784 9.011-7.463 13.856-10.898 5.517-3.896 9.49-8.316 9.944-15.404.784-12.51-10.519-23.757-18.78-31.856-4.767-4.672-9.36-9.476-13.848-14.41-2.187-2.433-5.333-4.438-6.736-7.576-.479-1.064-.897-2.956-.514-4.246 3.564.549 7.277 2.241 10.248 4.621.898.723 1.787 1.464 2.789 2.04 5.473 3.164 15.538 18.142 23.268 27.714 5.525 6.809 18.806 23.443 12.557 31.559z" fill="#ff9395"/><path d="m450.178 76.1437c.043 4.4897.557 8.5349 5.15 10.4877 3.015 1.2815 6.431 1.3774 9.621 1.9354 5.534.9589 11.442 2.7897 15.669 6.6779 4.052 3.7313 4.261 8.7533 5.446 13.8263 1.595 6.809 6.362 11.761 10.344 17.253.497.68-.636 1.334-1.133.663-3.668-5.065-8.148-9.756-10.03-15.867-.967-3.138-1.107-6.477-2.135-9.598-1.49-4.5337-5.185-7.245-9.412-9.0758-6.37-2.7635-14.135-1.8917-20.165-5.1697-4.174-2.2667-4.619-6.8087-4.662-11.1328-.009-.8369 1.298-.8369 1.307 0z" fill="#4d4a68"/><path d="m502.151 131.206c12.418 11.054 31.886 16.416 48.27 16.224 8.645-.096 16.95-1.979 24.653-5.928 7.32-3.758 14.954-8.788 18.205-16.686.314-.767 1.577-.427 1.263.349-6.169 15.003-26.195 22.631-41.193 23.477-17.612.994-38.762-4.621-52.113-16.512-.645-.558.288-1.482.915-.924z" fill="#4d4a68"/><path d="m554.229 139.174c5.028 1.334 10.867-.654 15.686-2.188 6.083-1.935 11.164-4.961 13.612-11.133.305-.776 1.569-.436 1.264.349-2.266 5.719-6.571 9.128-12.253 11.263-5.525 2.084-12.749 4.534-18.657 2.973-.811-.218-.471-1.482.348-1.264z" fill="#4d4a68"/><path d="m429.437 453.805c2.789-19.581 9.159-38.115 16.784-56.292 3.765-8.979 7.739-17.863 11.512-26.842 2.963-7.053 9.743-17.942 6.275-25.631-.21-.462.148-1.177.74-.959 2.127.793 4.148 1.264 6.44 1.229-.191.331-.374.654-.566.985-2.144-5.03-9.377-7.593-5.351-13.443 1.865-2.703 4.218-5.03 6.222-7.628 3.225-4.185 5.621-9.171 8.375-13.679 5.917-9.685 12.183-19.188 18.597-28.542 5.603-8.169 11.015-17.34 18.039-24.367.592-.593 1.516.331.924.924-6.58 6.574-11.652 15.152-16.933 22.78-5.804 8.396-11.451 16.948-16.871 25.596-4.235 6.774-7.791 14.184-12.95 20.304-1.656 1.962-5.168 4.882-5.568 7.515-.497 3.295 5.376 6.896 6.64 9.878.192.444-.026.976-.566.985-2.441.035-4.488-.419-6.789-1.273.244-.323.488-.637.741-.959 2.849 6.32-.689 13.704-3.172 19.563-4.044 9.529-8.122 19.04-12.201 28.551-8.54 19.912-16 40.111-19.067 61.662-.105.82-1.368.471-1.255-.357z" fill="#2e1d66"/><path d="m416.463 78.4872-1.624-2.8295 6.039-3.7907-4.773-5.1087 2.174-2.2267 5.488 4.3857 3.518-5.9837 2.967 1.4126-2.4 6.4449 6.897 1.582-.358 3.0915-6.974-.4841.804 7.0483-3.16.5521-1.932-7.0183z" fill="#dfeafb"/><path d="m333.499 30.0818-4.121-.0808-.179-9.0062-8.638 1.8481-.998-3.8033 8.319-3.0933-4.194-7.70122 3.459-2.29551 5.421 6.79053 6.199-6.44293 3.116 2.39785-5.059 7.24028 8.158 3.7125-1.457 3.7817-8.859-2.4705z" fill="#dfeafb"/><path d="m107.115 169.14-4.683-4.396 9.194-10.607-11.922-6.879 2.816-5.443 12.854 5.107 3.187-13.289 6.399.956-.818 13.515 13.898-.983 1.102 6.028-13.412 3.095 5.562 12.811-5.633 2.855-7.67-12.107z" fill="#dfeafb"/><path d="m537.297 43.1722c2.614 6.0764 3.224 12.859-.218 14.6985-4.253 2.2754-10.632-8.6308-12.837-11.5513-2.858-3.7836-5.682-9.982-.218-12.9985 5.011-2.7548 10.371 3.1124 13.273 9.8513z" fill="#dfeafb"/><path d="m558.368 53.0324c-.862 4.699-4.148 9.6246-6.056 13.1815-4.471 8.3518-5.839-1.3774-6.736-6.3989-.924-5.1523-1.83-14.0011 4.897-15.7185 2.754-.7061 5.525-.122 7.007 2.4585 1.15 1.9877 1.307 4.2107.888 6.4774z" fill="#dfeafb"/><path d="m543.066 24.4986c1.778 5.3441-2.615 13.9923-6.423 5.6144-4.008-8.8139 3.085-13.4257 6.423-5.6144z" fill="#dfeafb"/><path d="m16.5742 160.364c6.1699 2.371 11.4509 6.669 10.3703 10.418-1.3421 4.629-13.5946 1.595-17.22859 1.124-4.70584-.601-11.11104-2.903-9.446562-8.918 1.516322-5.51 9.455272-5.257 16.304852-2.624z" fill="#dfeafb"/><path d="m38.3431 152.16c2.7625 3.897 3.9912 9.695 5.2026 13.539 2.8583 9.032-5.0544 3.217-9.281.358-4.3311-2.938-11.294-8.465-7.8256-14.49 1.4205-2.458 3.7733-4.045 6.6491-3.304 2.2309.567 3.9216 2.014 5.2549 3.897z" fill="#dfeafb"/><path d="m7.24097 143.189c5.06313 2.459 8.19163 11.648-.47057 8.518-9.10667-3.278-7.442212-11.578.47057-8.518z" fill="#dfeafb"/><path d="m760.987 114.293c-.923.488-1.873.933-2.823 1.343-4.349 1.891-9.464 4.402-14.309 3.958-10.083-.924.723-15.231 4.828-18.91 4.104-3.6786 11.433-7.9765 17.254-5.9452 5.02 1.7523 5.046 7.8812 3.103 11.9522-1.665 3.496-4.715 5.841-8.053 7.602z" fill="#dfeafb"/><path d="m757.998 84.4255c-1.995 3.8707-5.08 8.0815-9.167 9.8774-3.146 1.3862-5.743.1395-6.754-3.1123-2.004-6.4949 1.516-38.7426 13.943-29.1616 6.754 5.2047 5.882 14.8206 1.978 22.3965z" fill="#dfeafb"/><path d="m779.854 80.1187c-1.577.3661-3.085.5928-4.348.7235-2.257.218-4.131-.8369-4.096-3.3128.07-4.2718 7.172-9.9123 10.588-11.5164 3.808-1.7872 9.665-1.7784 9.987 3.6267.375 6.0677-6.37 9.1538-12.131 10.479z" fill="#dfeafb"/><path d="m467.45 129.585c3.616-1.674 6.422-4.377 8.941-7.411.54-.645 1.455.279.924.924-2.589 3.121-5.499 5.894-9.212 7.62-.749.349-1.411-.776-.653-1.133z" fill="#fff"/><path d="m446.674 90.4497c5.63 4.2456 11.538 5.3353 18.44 5.283 3.66-.0261 6.536.4359 8.488 3.8185 2.005 3.4868 2.005 7.8548 2.85 11.6818 1.56 7.062 6.789 11.804 11.991 16.416.628.558-.296 1.482-.924.924-4.592-4.071-9.15-8.038-11.459-13.922-1.456-3.714-1.36-7.838-2.501-11.639-.75-2.502-1.839-4.8731-4.523-5.7449-2.736-.8892-6.222-.1046-9.098-.34-5.264-.4185-9.699-2.1795-13.908-5.3528-.68-.4882-.027-1.6303.644-1.1246z" fill="#fff"/><path d="m515.981 197.593c1.734-.061 3.425-.035 5.028.715.758.358.096 1.482-.662 1.134-1.368-.646-2.893-.593-4.366-.541-.845.035-.845-1.273 0-1.308z" fill="#fff"/><path d="m493.759 261.043c-.27.993-.889 2.109-.993 3.129-.619 1.064-.393 2.005.688 2.851.322 1.7 1.211 2.188 2.675 1.456 2.85-.288 5.769-2.057 8.305-3.243 4.793-2.241 9.56-3.618 14.824-4.342 5.856-.793 11.799-.906 17.681-.444 5.804.453 11.547 1.953 15.094-3.993.427-.724 1.56-.061 1.133.662-2.902 4.874-6.911 5.501-12.261 5.013-9.255-.828-18.501-1.011-27.608 1.177-4.331 1.038-8.105 3.2-12.183 4.882-2.03.837-4.732 2.023-7.033 1.805-5.132-.506-2.405-6.277-1.568-9.311.218-.802 1.473-.462 1.246.358z" fill="#5652e8"/><path d="m155.122 214.105h92.679c1.446 0 2.614-1.168 2.614-2.615 0-1.448-1.168-2.616-2.614-2.616h-92.688c-1.447 0-2.614 1.168-2.614 2.616.008 1.447 1.176 2.615 2.623 2.615z" fill="#fff"/><path d="m449.794 117.902 8.907-1.621c.191-.035.383.078.435.261.314 1.02 1.151 4.141-.104 5.092-1.464 1.098-6.005 2.005-9.49-3.13-.157-.227-.018-.549.252-.602z" fill="#fff"/><path d="m332.026 203.103-12.862 10.401-9.212-10.401s21.822-4.734 22.074 0z" fill="#3a3add"/><path d="m306.772 206.599c-.384-.262-2.606.549-3.085.654-1.229.261-2.458.514-3.695.671-2.554.323-4.837-.235-7.373-.305-2.771-.079-7.189 1.674-2.815 3.714 1.264.584 4.924.75 3.495 2.781-1.133 1.613-3.085 2.406-4.444 3.792-.323.331-.619.68-.915 1.038-3.094 2.162-8.462 12.536-2.545 14.027 1.098.279 2.074-.07 3.102-.445 4.323-1.587 8.279-4.036 12.07-6.617 3.468-2.354 7.216-4.516 10.248-7.454.741-.715 1.36-1.839 1.212-2.885-.123-.863-.837-1.491-1.081-2.311-.218-.741-.14-1.604-.34-2.38-.444-1.734-1.333-2.964-3.024-3.67-.261-.218-.532-.418-.81-.61z" fill="#ffadae"/><path d="m311.138 198.247c.444 3.199 2.309 7.497 4.357 10.026 1.473 1.813 3.233 3.469 3.861 5.823.679 2.581-1.159 4.734-3.355 5.667-1.735.741-3.478 1.395-5.22 2.153-1.02.445-1.552.689-2.397-.148-.784-.785-1.333-2.328-1.778-3.33-.697-1.578-.775-3.331-1.185-5.004-.427-1.709-.915-3.409-1.176-5.118-.262-1.691-.366-3.217.47-4.821.549-1.046 1.246-2.153 1.952-3.086 1.046-1.412 2.231-1.761 4.471-2.162z" fill="#3a3add"/><path d="m311.652 198.7c1.045 3.374 2.727 6.844 4.523 9.878.88 1.499 2.649 2.903 2.684 4.742.008.402-.366.611-.724.55-1.725-.288-1.995-2.014-3.398-2.502-.863-.305-.323.331-.175 1.063.183.898.619 1.857.889 2.746.218.707-.889 1.012-1.107.306-.313-1.029-2.779-5.118-1.333-6.042 1.499-.968 4.305 3.147 5.421 3.33-.244.183-.48.366-.724.549-.017-1.028-1.185-2.109-1.769-2.946-.828-1.186-1.49-2.52-2.144-3.801-1.228-2.415-2.44-4.978-3.241-7.567-.227-.707.88-1.003 1.098-.306z" fill="#2c2cbf"/></svg>